<mxfile host="app.diagrams.net" modified="2023-06-28T03:11:17.150Z" agent="Mozilla/5.0 (Windows NT 10.0; Win64; x64) AppleWebKit/537.36 (KHTML, like Gecko) Chrome/114.0.0.0 Safari/537.36" etag="rbFrIfA4b-U5dbjUuPx_" version="21.5.0" type="github">
  <diagram name="第 1 页" id="_3mwSGDof0DfkYGqECy5">
    <mxGraphModel dx="1434" dy="804" grid="1" gridSize="10" guides="1" tooltips="1" connect="1" arrows="1" fold="1" page="1" pageScale="1" pageWidth="827" pageHeight="1169" math="0" shadow="0">
      <root>
        <mxCell id="0" />
        <mxCell id="1" parent="0" />
        <mxCell id="b4-3KO6AXn-a5v44EJSa-49" value="day 2" style="rounded=0;whiteSpace=wrap;html=1;align=right;verticalAlign=top;" vertex="1" parent="1">
          <mxGeometry x="1470" y="1040" width="190" height="160" as="geometry" />
        </mxCell>
        <mxCell id="b4-3KO6AXn-a5v44EJSa-48" value="day 1" style="rounded=0;whiteSpace=wrap;html=1;align=left;" vertex="1" parent="1">
          <mxGeometry x="1230" y="1040" width="230" height="160" as="geometry" />
        </mxCell>
        <mxCell id="OMTwgSqRfycg-uic3PEJ-1" value="客户" style="shape=umlLifeline;perimeter=lifelinePerimeter;whiteSpace=wrap;html=1;container=1;dropTarget=0;collapsible=0;recursiveResize=0;outlineConnect=0;portConstraint=eastwest;newEdgeStyle={&quot;edgeStyle&quot;:&quot;elbowEdgeStyle&quot;,&quot;elbow&quot;:&quot;vertical&quot;,&quot;curved&quot;:0,&quot;rounded&quot;:0};hachureGap=4;fontFamily=Architects Daughter;fontSource=https%3A%2F%2Ffonts.googleapis.com%2Fcss%3Ffamily%3DArchitects%2BDaughter;fontSize=20;rounded=1;" parent="1" vertex="1">
          <mxGeometry x="70" y="30" width="100" height="300" as="geometry" />
        </mxCell>
        <mxCell id="OMTwgSqRfycg-uic3PEJ-2" value="芷悦/健宇" style="shape=umlLifeline;perimeter=lifelinePerimeter;whiteSpace=wrap;html=1;container=1;dropTarget=0;collapsible=0;recursiveResize=0;outlineConnect=0;portConstraint=eastwest;newEdgeStyle={&quot;edgeStyle&quot;:&quot;elbowEdgeStyle&quot;,&quot;elbow&quot;:&quot;vertical&quot;,&quot;curved&quot;:0,&quot;rounded&quot;:0};hachureGap=4;fontFamily=Architects Daughter;fontSource=https%3A%2F%2Ffonts.googleapis.com%2Fcss%3Ffamily%3DArchitects%2BDaughter;fontSize=20;rounded=1;" parent="1" vertex="1">
          <mxGeometry x="190" y="30" width="100" height="300" as="geometry" />
        </mxCell>
        <mxCell id="OMTwgSqRfycg-uic3PEJ-3" value="客户端" style="shape=umlLifeline;perimeter=lifelinePerimeter;whiteSpace=wrap;html=1;container=1;dropTarget=0;collapsible=0;recursiveResize=0;outlineConnect=0;portConstraint=eastwest;newEdgeStyle={&quot;edgeStyle&quot;:&quot;elbowEdgeStyle&quot;,&quot;elbow&quot;:&quot;vertical&quot;,&quot;curved&quot;:0,&quot;rounded&quot;:0};hachureGap=4;fontFamily=Architects Daughter;fontSource=https%3A%2F%2Ffonts.googleapis.com%2Fcss%3Ffamily%3DArchitects%2BDaughter;fontSize=20;rounded=1;" parent="1" vertex="1">
          <mxGeometry x="310" y="30" width="100" height="300" as="geometry" />
        </mxCell>
        <mxCell id="OMTwgSqRfycg-uic3PEJ-4" value="内管端" style="shape=umlLifeline;perimeter=lifelinePerimeter;whiteSpace=wrap;html=1;container=1;dropTarget=0;collapsible=0;recursiveResize=0;outlineConnect=0;portConstraint=eastwest;newEdgeStyle={&quot;edgeStyle&quot;:&quot;elbowEdgeStyle&quot;,&quot;elbow&quot;:&quot;vertical&quot;,&quot;curved&quot;:0,&quot;rounded&quot;:0};hachureGap=4;fontFamily=Architects Daughter;fontSource=https%3A%2F%2Ffonts.googleapis.com%2Fcss%3Ffamily%3DArchitects%2BDaughter;fontSize=20;rounded=1;" parent="1" vertex="1">
          <mxGeometry x="430" y="30" width="100" height="300" as="geometry" />
        </mxCell>
        <mxCell id="OMTwgSqRfycg-uic3PEJ-5" value="服务" style="shape=umlLifeline;perimeter=lifelinePerimeter;whiteSpace=wrap;html=1;container=1;dropTarget=0;collapsible=0;recursiveResize=0;outlineConnect=0;portConstraint=eastwest;newEdgeStyle={&quot;edgeStyle&quot;:&quot;elbowEdgeStyle&quot;,&quot;elbow&quot;:&quot;vertical&quot;,&quot;curved&quot;:0,&quot;rounded&quot;:0};hachureGap=4;fontFamily=Architects Daughter;fontSource=https%3A%2F%2Ffonts.googleapis.com%2Fcss%3Ffamily%3DArchitects%2BDaughter;fontSize=20;rounded=1;" parent="1" vertex="1">
          <mxGeometry x="550" y="30" width="100" height="300" as="geometry" />
        </mxCell>
        <mxCell id="OMTwgSqRfycg-uic3PEJ-6" value="中信银行" style="shape=umlLifeline;perimeter=lifelinePerimeter;whiteSpace=wrap;html=1;container=1;dropTarget=0;collapsible=0;recursiveResize=0;outlineConnect=0;portConstraint=eastwest;newEdgeStyle={&quot;edgeStyle&quot;:&quot;elbowEdgeStyle&quot;,&quot;elbow&quot;:&quot;vertical&quot;,&quot;curved&quot;:0,&quot;rounded&quot;:0};hachureGap=4;fontFamily=Architects Daughter;fontSource=https%3A%2F%2Ffonts.googleapis.com%2Fcss%3Ffamily%3DArchitects%2BDaughter;fontSize=20;rounded=1;" parent="1" vertex="1">
          <mxGeometry x="670" y="30" width="100" height="300" as="geometry" />
        </mxCell>
        <mxCell id="b4-3KO6AXn-a5v44EJSa-1" value="sub account" style="rounded=1;whiteSpace=wrap;html=1;" vertex="1" parent="1">
          <mxGeometry x="420" y="1030" width="120" height="60" as="geometry" />
        </mxCell>
        <mxCell id="b4-3KO6AXn-a5v44EJSa-3" style="edgeStyle=orthogonalEdgeStyle;rounded=0;orthogonalLoop=1;jettySize=auto;html=1;exitX=0.5;exitY=1;exitDx=0;exitDy=0;" edge="1" parent="1" source="b4-3KO6AXn-a5v44EJSa-2" target="b4-3KO6AXn-a5v44EJSa-1">
          <mxGeometry relative="1" as="geometry" />
        </mxCell>
        <mxCell id="b4-3KO6AXn-a5v44EJSa-2" value="master account" style="rounded=1;whiteSpace=wrap;html=1;" vertex="1" parent="1">
          <mxGeometry x="420" y="900" width="120" height="60" as="geometry" />
        </mxCell>
        <mxCell id="b4-3KO6AXn-a5v44EJSa-4" value="&lt;font color=&quot;#ff0000&quot;&gt;sishun&lt;/font&gt;&lt;br&gt;sub account USD&lt;br&gt;controller A" style="rounded=1;whiteSpace=wrap;html=1;" vertex="1" parent="1">
          <mxGeometry x="820" y="990" width="120" height="60" as="geometry" />
        </mxCell>
        <mxCell id="b4-3KO6AXn-a5v44EJSa-5" style="edgeStyle=orthogonalEdgeStyle;rounded=0;orthogonalLoop=1;jettySize=auto;html=1;exitX=0.75;exitY=1;exitDx=0;exitDy=0;" edge="1" parent="1" source="b4-3KO6AXn-a5v44EJSa-6" target="b4-3KO6AXn-a5v44EJSa-4">
          <mxGeometry relative="1" as="geometry" />
        </mxCell>
        <mxCell id="b4-3KO6AXn-a5v44EJSa-34" style="edgeStyle=orthogonalEdgeStyle;rounded=0;orthogonalLoop=1;jettySize=auto;html=1;exitX=0;exitY=0.5;exitDx=0;exitDy=0;entryX=0.5;entryY=0;entryDx=0;entryDy=0;" edge="1" parent="1" source="b4-3KO6AXn-a5v44EJSa-6" target="b4-3KO6AXn-a5v44EJSa-28">
          <mxGeometry relative="1" as="geometry" />
        </mxCell>
        <mxCell id="b4-3KO6AXn-a5v44EJSa-6" value="master account&lt;br&gt;C" style="rounded=1;whiteSpace=wrap;html=1;" vertex="1" parent="1">
          <mxGeometry x="790" y="890" width="120" height="60" as="geometry" />
        </mxCell>
        <mxCell id="b4-3KO6AXn-a5v44EJSa-7" value="CNY" style="rounded=0;whiteSpace=wrap;html=1;" vertex="1" parent="1">
          <mxGeometry x="420" y="820" width="120" height="60" as="geometry" />
        </mxCell>
        <mxCell id="b4-3KO6AXn-a5v44EJSa-8" value="USD" style="rounded=0;whiteSpace=wrap;html=1;" vertex="1" parent="1">
          <mxGeometry x="790" y="820" width="120" height="60" as="geometry" />
        </mxCell>
        <mxCell id="b4-3KO6AXn-a5v44EJSa-10" value="collection" style="edgeStyle=orthogonalEdgeStyle;rounded=0;orthogonalLoop=1;jettySize=auto;html=1;exitX=0;exitY=0.5;exitDx=0;exitDy=0;entryX=1;entryY=0.5;entryDx=0;entryDy=0;" edge="1" parent="1" source="b4-3KO6AXn-a5v44EJSa-9" target="b4-3KO6AXn-a5v44EJSa-4">
          <mxGeometry relative="1" as="geometry" />
        </mxCell>
        <mxCell id="b4-3KO6AXn-a5v44EJSa-9" value="Supplier" style="rounded=0;whiteSpace=wrap;html=1;" vertex="1" parent="1">
          <mxGeometry x="1040" y="990" width="120" height="60" as="geometry" />
        </mxCell>
        <mxCell id="b4-3KO6AXn-a5v44EJSa-13" value="" style="rounded=0;whiteSpace=wrap;html=1;" vertex="1" parent="1">
          <mxGeometry x="940" y="900" width="120" height="60" as="geometry" />
        </mxCell>
        <mxCell id="b4-3KO6AXn-a5v44EJSa-18" value="A" style="text;html=1;strokeColor=none;fillColor=none;align=center;verticalAlign=middle;whiteSpace=wrap;rounded=0;" vertex="1" parent="1">
          <mxGeometry x="1260" y="1040" width="60" height="30" as="geometry" />
        </mxCell>
        <mxCell id="b4-3KO6AXn-a5v44EJSa-32" style="edgeStyle=orthogonalEdgeStyle;rounded=0;orthogonalLoop=1;jettySize=auto;html=1;exitX=0.5;exitY=0;exitDx=0;exitDy=0;entryX=0.5;entryY=1;entryDx=0;entryDy=0;" edge="1" parent="1" source="b4-3KO6AXn-a5v44EJSa-19" target="b4-3KO6AXn-a5v44EJSa-31">
          <mxGeometry relative="1" as="geometry" />
        </mxCell>
        <mxCell id="b4-3KO6AXn-a5v44EJSa-19" value="C" style="text;html=1;strokeColor=none;fillColor=none;align=center;verticalAlign=middle;whiteSpace=wrap;rounded=0;" vertex="1" parent="1">
          <mxGeometry x="1370" y="1040" width="60" height="30" as="geometry" />
        </mxCell>
        <mxCell id="b4-3KO6AXn-a5v44EJSa-20" value="B" style="text;html=1;strokeColor=none;fillColor=none;align=center;verticalAlign=middle;whiteSpace=wrap;rounded=0;" vertex="1" parent="1">
          <mxGeometry x="1470" y="1040" width="60" height="30" as="geometry" />
        </mxCell>
        <mxCell id="b4-3KO6AXn-a5v44EJSa-26" value="1" style="edgeStyle=orthogonalEdgeStyle;rounded=0;orthogonalLoop=1;jettySize=auto;html=1;exitX=0.5;exitY=1;exitDx=0;exitDy=0;entryX=0.5;entryY=1;entryDx=0;entryDy=0;" edge="1" parent="1" source="b4-3KO6AXn-a5v44EJSa-21" target="b4-3KO6AXn-a5v44EJSa-25">
          <mxGeometry relative="1" as="geometry">
            <Array as="points">
              <mxPoint x="1290" y="1180" />
              <mxPoint x="1600" y="1180" />
            </Array>
          </mxGeometry>
        </mxCell>
        <mxCell id="b4-3KO6AXn-a5v44EJSa-27" value="2" style="edgeStyle=orthogonalEdgeStyle;rounded=0;orthogonalLoop=1;jettySize=auto;html=1;exitX=0.5;exitY=0;exitDx=0;exitDy=0;entryX=0.5;entryY=0;entryDx=0;entryDy=0;" edge="1" parent="1" source="b4-3KO6AXn-a5v44EJSa-21" target="b4-3KO6AXn-a5v44EJSa-23">
          <mxGeometry relative="1" as="geometry">
            <Array as="points">
              <mxPoint x="1290" y="1090" />
              <mxPoint x="1500" y="1090" />
            </Array>
          </mxGeometry>
        </mxCell>
        <mxCell id="b4-3KO6AXn-a5v44EJSa-21" value="0 USD" style="text;html=1;strokeColor=none;fillColor=none;align=center;verticalAlign=middle;whiteSpace=wrap;rounded=0;" vertex="1" parent="1">
          <mxGeometry x="1260" y="1100" width="60" height="30" as="geometry" />
        </mxCell>
        <mxCell id="b4-3KO6AXn-a5v44EJSa-22" value="100 USD" style="text;html=1;strokeColor=none;fillColor=none;align=center;verticalAlign=middle;whiteSpace=wrap;rounded=0;" vertex="1" parent="1">
          <mxGeometry x="1360" y="1100" width="60" height="30" as="geometry" />
        </mxCell>
        <mxCell id="b4-3KO6AXn-a5v44EJSa-23" value="20 USD" style="text;html=1;strokeColor=none;fillColor=none;align=center;verticalAlign=middle;whiteSpace=wrap;rounded=0;" vertex="1" parent="1">
          <mxGeometry x="1470" y="1100" width="60" height="30" as="geometry" />
        </mxCell>
        <mxCell id="b4-3KO6AXn-a5v44EJSa-24" value="Linklogis D" style="text;html=1;strokeColor=none;fillColor=none;align=center;verticalAlign=middle;whiteSpace=wrap;rounded=0;" vertex="1" parent="1">
          <mxGeometry x="1570" y="1040" width="60" height="30" as="geometry" />
        </mxCell>
        <mxCell id="b4-3KO6AXn-a5v44EJSa-25" value="80 USD" style="text;html=1;strokeColor=none;fillColor=none;align=center;verticalAlign=middle;whiteSpace=wrap;rounded=0;" vertex="1" parent="1">
          <mxGeometry x="1570" y="1100" width="60" height="30" as="geometry" />
        </mxCell>
        <mxCell id="b4-3KO6AXn-a5v44EJSa-28" value="&lt;font color=&quot;#ff0000&quot;&gt;Linklogis&lt;/font&gt; sub account USD&lt;br&gt;D" style="rounded=1;whiteSpace=wrap;html=1;" vertex="1" parent="1">
          <mxGeometry x="630" y="990" width="120" height="60" as="geometry" />
        </mxCell>
        <mxCell id="b4-3KO6AXn-a5v44EJSa-30" value="payout" style="edgeStyle=orthogonalEdgeStyle;rounded=0;orthogonalLoop=1;jettySize=auto;html=1;exitX=0;exitY=0.5;exitDx=0;exitDy=0;entryX=1;entryY=0.5;entryDx=0;entryDy=0;" edge="1" parent="1" source="b4-3KO6AXn-a5v44EJSa-29" target="b4-3KO6AXn-a5v44EJSa-19">
          <mxGeometry relative="1" as="geometry" />
        </mxCell>
        <mxCell id="b4-3KO6AXn-a5v44EJSa-29" value="B day 2" style="text;html=1;strokeColor=none;fillColor=none;align=center;verticalAlign=middle;whiteSpace=wrap;rounded=0;" vertex="1" parent="1">
          <mxGeometry x="1470" y="940" width="60" height="30" as="geometry" />
        </mxCell>
        <mxCell id="b4-3KO6AXn-a5v44EJSa-31" value="other" style="text;html=1;strokeColor=none;fillColor=none;align=center;verticalAlign=middle;whiteSpace=wrap;rounded=0;" vertex="1" parent="1">
          <mxGeometry x="1370" y="820" width="60" height="30" as="geometry" />
        </mxCell>
        <mxCell id="b4-3KO6AXn-a5v44EJSa-33" value="D day 2" style="text;html=1;strokeColor=none;fillColor=none;align=center;verticalAlign=middle;whiteSpace=wrap;rounded=0;" vertex="1" parent="1">
          <mxGeometry x="1570" y="940" width="60" height="30" as="geometry" />
        </mxCell>
        <mxCell id="b4-3KO6AXn-a5v44EJSa-38" style="edgeStyle=orthogonalEdgeStyle;rounded=0;orthogonalLoop=1;jettySize=auto;html=1;exitX=0.5;exitY=1;exitDx=0;exitDy=0;entryX=0.5;entryY=0;entryDx=0;entryDy=0;" edge="1" parent="1" source="b4-3KO6AXn-a5v44EJSa-40" target="b4-3KO6AXn-a5v44EJSa-44">
          <mxGeometry relative="1" as="geometry" />
        </mxCell>
        <mxCell id="b4-3KO6AXn-a5v44EJSa-39" style="edgeStyle=orthogonalEdgeStyle;rounded=0;orthogonalLoop=1;jettySize=auto;html=1;exitX=0;exitY=0.5;exitDx=0;exitDy=0;entryX=0.5;entryY=0;entryDx=0;entryDy=0;" edge="1" parent="1" source="b4-3KO6AXn-a5v44EJSa-40" target="b4-3KO6AXn-a5v44EJSa-46">
          <mxGeometry relative="1" as="geometry" />
        </mxCell>
        <mxCell id="b4-3KO6AXn-a5v44EJSa-40" value="master account&lt;br&gt;F" style="rounded=1;whiteSpace=wrap;html=1;" vertex="1" parent="1">
          <mxGeometry x="790" y="1180" width="120" height="60" as="geometry" />
        </mxCell>
        <mxCell id="b4-3KO6AXn-a5v44EJSa-41" value="USD" style="rounded=0;whiteSpace=wrap;html=1;" vertex="1" parent="1">
          <mxGeometry x="790" y="1110" width="120" height="60" as="geometry" />
        </mxCell>
        <mxCell id="b4-3KO6AXn-a5v44EJSa-44" value="&lt;font color=&quot;#ff0000&quot;&gt;sishun &lt;/font&gt;&lt;br&gt;sub account USD&lt;br&gt;B" style="rounded=1;whiteSpace=wrap;html=1;" vertex="1" parent="1">
          <mxGeometry x="790" y="1320" width="120" height="60" as="geometry" />
        </mxCell>
        <mxCell id="b4-3KO6AXn-a5v44EJSa-46" value="&lt;font color=&quot;#ff0000&quot;&gt;Linklogis&lt;/font&gt; sub account USD&lt;br&gt;G" style="rounded=1;whiteSpace=wrap;html=1;" vertex="1" parent="1">
          <mxGeometry x="630" y="1320" width="120" height="60" as="geometry" />
        </mxCell>
      </root>
    </mxGraphModel>
  </diagram>
</mxfile>
